HIERARCHY
ROOT Hips
{
	OFFSET 54.866402 -13.263610 57.676796
	CHANNELS 6 Xposition Yposition Zposition Xrotation Yrotation Zrotation
	JOINT spine
	{
		OFFSET 0.000000 -0.467660 8.132492
		CHANNELS 3 Xrotation Yrotation Zrotation
		JOINT spine1
		{
			OFFSET 0.000000 -0.000002 10.349800
			CHANNELS 3 Xrotation Yrotation Zrotation
			JOINT spine2
			{
				OFFSET 0.000000 -0.000002 9.916992
				CHANNELS 3 Xrotation Yrotation Zrotation
				JOINT Neck
				{
					OFFSET 0.000000 -1.213903 25.460999
					CHANNELS 3 Xrotation Yrotation Zrotation
					JOINT Head
					{
						OFFSET 0.000000 -0.000001 7.692451
						CHANNELS 3 Xrotation Yrotation Zrotation
						End Site
						{
							OFFSET 0.000000 6.140626 18.620003
						}
					}
				}
				JOINT RightShoulder
				{
					OFFSET -4.175751 0.581443 10.709602
					CHANNELS 3 Xrotation Yrotation Zrotation
					JOINT RightArm
					{
						OFFSET 0.000000 -0.000002 14.046600
						CHANNELS 3 Xrotation Yrotation Zrotation
						JOINT RightArmRoll
						{
							OFFSET 0.000000 -0.000001 7.090988
							CHANNELS 3 Xrotation Yrotation Zrotation
							JOINT RightForeArm
							{
								OFFSET 0.000000 -0.000004 20.653496
								CHANNELS 3 Xrotation Yrotation Zrotation
								JOINT RightForeArmRoll
								{
									OFFSET 0.000000 -0.000001 7.957184
									CHANNELS 3 Xrotation Yrotation Zrotation
									JOINT RightHand
									{
										OFFSET 0.000000 -0.000003 15.968307
										CHANNELS 3 Xrotation Yrotation Zrotation
										End Site
										{
											OFFSET 0.000000 0.000000 0.100006
										}
									}
								}
							}
						}
					}
				}
				JOINT LeftShoulder
				{
					OFFSET 4.175751 0.581443 10.709602
					CHANNELS 3 Xrotation Yrotation Zrotation
					JOINT LeftArm
					{
						OFFSET 0.000000 -0.000002 14.046600
						CHANNELS 3 Xrotation Yrotation Zrotation
						JOINT LeftArmRoll
						{
							OFFSET 0.000000 -0.000001 7.090988
							CHANNELS 3 Xrotation Yrotation Zrotation
							JOINT LeftForeArm
							{
								OFFSET 0.000000 -0.000004 20.653496
								CHANNELS 3 Xrotation Yrotation Zrotation
								JOINT LeftForeArmRoll
								{
									OFFSET 0.000000 -0.000001 7.957184
									CHANNELS 3 Xrotation Yrotation Zrotation
									JOINT LeftHand
									{
										OFFSET 0.000000 -0.000003 15.968307
										CHANNELS 3 Xrotation Yrotation Zrotation
										End Site
										{
											OFFSET 0.000000 0.000000 0.100006
										}
									}
								}
							}
						}
					}
				}
			}
		}
	}
	JOINT RightUpLeg
	{
		OFFSET -7.208340 1.108840 -1.321819
		CHANNELS 3 Xrotation Yrotation Zrotation
		JOINT RightUpLegRoll
		{
			OFFSET 0.000000 -0.000003 18.723804
			CHANNELS 3 Xrotation Yrotation Zrotation
			JOINT RightLeg
			{
				OFFSET 0.000000 0.000004 -23.186604
				CHANNELS 3 Xrotation Yrotation Zrotation
				JOINT RightLegRoll
				{
					OFFSET 0.000000 -0.000004 23.262402
					CHANNELS 3 Xrotation Yrotation Zrotation
					JOINT RightFoot
					{
						OFFSET 0.000000 -0.000003 19.362099
						CHANNELS 3 Xrotation Yrotation Zrotation
						JOINT RightToeBase
						{
							OFFSET 0.000000 -0.000003 16.185699
							CHANNELS 3 Xrotation Yrotation Zrotation
							End Site
							{
								OFFSET 0.006859 0.903520 7.838631
							}
						}
					}
				}
			}
		}
	}
	JOINT LeftUpLeg
	{
		OFFSET 7.208340 1.108840 -1.321819
		CHANNELS 3 Xrotation Yrotation Zrotation
		JOINT LeftUpLegRoll
		{
			OFFSET 0.000000 -0.000003 18.723904
			CHANNELS 3 Xrotation Yrotation Zrotation
			JOINT LeftLeg
			{
				OFFSET 0.000000 -0.000004 23.186501
				CHANNELS 3 Xrotation Yrotation Zrotation
				JOINT LeftLegRoll
				{
					OFFSET 0.000000 -0.000004 23.477501
					CHANNELS 3 Xrotation Yrotation Zrotation
					JOINT LeftFoot
					{
						OFFSET 0.000000 -0.000003 19.146996
						CHANNELS 3 Xrotation Yrotation Zrotation
						JOINT LeftToeBase
						{
							OFFSET 0.000000 -0.000003 16.185699
							CHANNELS 3 Xrotation Yrotation Zrotation
							End Site
							{
								OFFSET -0.030746 0.903520 7.838623
							}
						}
					}
				}
			}
		}
	}
}
MOTION
Frames: 5
Frame Time: 0.041667
52.941799 -20.949614 63.101002 18.861417 0.842747 -0.072180 2.622771 -0.999062 0.045820 9.250871 -1.992959 0.147268 10.896360 -1.991055 0.171133 12.433678 5.687507 -5.544535 7.822423 -0.653972 -5.801207 -11.535166 -44.005136 -12.817555 -44.814217 -137.382657 -72.342980 0.000001 0.000001 0.000009 70.029308 -8.505596 2.930304 0.000001 -0.000001 -3.006430 -5.000251 -7.998763 0.000173 -11.541409 55.874253 13.476098 -53.358947 133.588788 82.727736 -0.000000 -0.000006 0.000006 61.501175 3.438020 -2.604272 0.000009 -0.000012 3.008130 -5.000251 7.998789 -0.000155 -95.461039 -171.443581 3.931561 179.999991 -0.000006 -0.982996 95.994634 -1.202481 -4.558031 -0.000006 0.000002 1.852060 71.756280 7.676474 -0.259520 25.456955 -7.355617 -0.000001 -96.007420 170.828318 -0.249214 -0.000020 -0.000005 -0.847706 -85.538701 -1.800104 1.693325 0.000001 -0.000001 -2.054189 72.582276 -6.018089 -4.352881 25.457162 7.355621 -0.000305 
52.933998 -20.895912 63.028000 18.750539 0.829702 -0.077145 2.621659 -1.000981 0.045431 9.248645 -1.996841 0.146608 10.894180 -1.994947 0.170521 12.418515 5.774534 -5.543559 7.855815 -0.716010 -5.794660 -11.535327 -43.944450 -12.814274 -44.772109 -137.420537 -72.279125 -0.000001 0.000002 0.000007 70.011877 -8.505645 2.925256 0.000002 0.000001 -3.006430 -5.000250 -7.998762 0.000175 -11.513614 55.918404 13.444981 -53.428895 133.563694 82.827628 -0.000000 -0.000006 0.000001 61.496305 3.434998 -2.606807 0.000007 -0.000013 3.008130 -5.000247 7.998788 -0.000159 -95.472371 -171.437352 3.934012 179.999991 -0.000005 -0.985004 95.942499 -1.177967 -4.544866 -0.000005 0.000002 1.857020 71.690075 7.680138 -0.260772 25.456957 -7.355614 0.000001 -96.011751 170.853808 -0.234301 -0.000020 -0.000004 -0.848113 -85.598629 -1.833227 1.669154 0.000001 -0.000001 -2.054030 72.522600 -6.006720 -4.386140 25.457162 7.355619 -0.000304 
52.921902 -20.822514 62.968899 18.639361 0.816437 -0.081457 2.620314 -1.003280 0.045093 9.245958 -2.001446 0.146047 10.891511 -1.999561 0.170015 12.400805 5.868086 -5.542735 7.893016 -0.782587 -5.787927 -11.535735 -43.879154 -12.811033 -44.726620 -137.461901 -72.208903 -0.000001 0.000001 0.000011 69.990301 -8.506541 2.920549 0.000003 -0.000000 -3.006431 -5.000252 -7.998764 0.000174 -11.484662 55.966587 13.412681 -53.501271 133.537889 82.929719 0.000000 -0.000008 0.000007 61.489543 3.432227 -2.609115 0.000009 -0.000015 3.008128 -5.000247 7.998792 -0.000157 -95.482650 -171.429989 3.936091 179.999991 -0.000005 -0.986999 95.892011 -1.154250 -4.531593 -0.000006 0.000002 1.862000 71.623044 7.684385 -0.263568 25.456959 -7.355616 0.000001 -96.014988 170.880774 -0.217778 -0.000020 -0.000005 -0.848530 -85.656426 -1.866695 1.644998 0.000001 -0.000001 -2.053651 72.461525 -5.995070 -4.420215 25.457160 7.355619 -0.000304 
52.930099 -20.764309 62.890594 18.527689 0.802981 -0.085214 2.618775 -1.005868 0.044812 9.242899 -2.006615 0.145602 10.888445 -2.004738 0.169632 12.381225 5.966365 -5.542057 7.933036 -0.852248 -5.781123 -11.536727 -43.810783 -12.808365 -44.679501 -137.505546 -72.135069 -0.000000 0.000002 0.000008 69.965091 -8.508368 2.916284 0.000003 -0.000000 -3.006428 -5.000251 -7.998759 0.000175 -11.454909 56.017957 13.379605 -53.576011 133.511415 83.033858 0.000001 -0.000007 0.000007 61.480718 3.429921 -2.611392 0.000007 -0.000013 3.008129 -5.000247 7.998790 -0.000156 -95.491768 -171.421520 3.938993 179.999991 -0.000006 -0.989007 95.842792 -1.131227 -4.518270 -0.000005 0.000002 1.867000 71.555732 7.688960 -0.267182 25.456960 -7.355617 0.000000 -96.017003 170.908641 -0.202589 -0.000020 -0.000004 -0.848989 -85.712624 -1.900231 1.620735 0.000000 -0.000001 -2.053130 72.399513 -5.983332 -4.454319 25.457157 7.355615 -0.000303 
52.925301 -20.702814 62.823997 18.415609 0.789361 -0.088516 2.617096 -1.008657 0.044598 9.239549 -2.012182 0.145286 10.885084 -2.010308 0.169384 12.360528 6.067548 -5.541523 7.974904 -0.923534 -5.774353 -11.538626 -43.740835 -12.806737 -44.630474 -137.552346 -72.057478 -0.000001 0.000001 0.000009 69.936527 -8.511123 2.912708 0.000001 -0.000002 -3.006428 -5.000252 -7.998760 0.000174 -11.424723 56.071676 13.346097 -53.650815 133.486185 83.136940 0.000000 -0.000007 0.000005 61.469455 3.428317 -2.613821 0.000003 -0.000012 3.008131 -5.000247 7.998791 -0.000156 -95.499548 -171.412190 3.941966 179.999991 -0.000005 -0.990003 95.794359 -1.108700 -4.505886 -0.000006 0.000002 1.872000 71.488359 7.693856 -0.271533 25.456960 -7.355616 -0.000000 -96.017741 170.936918 -0.186626 -0.000020 -0.000004 -0.849523 -85.767375 -1.933723 1.596566 0.000001 -0.000002 -2.052548 72.336867 -5.971745 -4.487967 25.457162 7.355619 -0.000304 
